<svg xmlns="http://www.w3.org/2000/svg" viewBox="0 0 48.65 49.75"><defs><style>.cls-1{fill:#414042;}</style></defs><g id="Layer_2" data-name="Layer 2"><g id="Layer_1-2" data-name="Layer 1"><path class="cls-1" d="M10.77,12.17V3L6.88,12.17H6L2.1,3v9.21h-1V1.82H2.68l3.76,8.81L10.2,1.82h1.61V12.17Z" transform="translate(-0.69 -1.82)"/><path class="cls-1" d="M20.51,12.17V10.83a3.3,3.3,0,0,1-3,1.52,4,4,0,0,1-4.11-4,4,4,0,0,1,4-4,3.38,3.38,0,0,1,3,1.54V4.51h1v7.66Zm-3-6.89a3,3,0,0,0-3,3,3,3,0,0,0,3.07,3.11,3,3,0,0,0,2.94-3.09A3,3,0,0,0,17.52,5.28Z" transform="translate(-0.69 -1.82)"/><path class="cls-1" d="M28.1,12.17,25.55,9.1l-1.2,1.49v1.58h-1V1.82h1V9.16l3.57-4.65h1.27l-3,3.85,3.18,3.81Z" transform="translate(-0.69 -1.82)"/><path class="cls-1" d="M30.34,3.67V1.91h1V3.67Zm0,8.5V4.51h1v7.66Z" transform="translate(-0.69 -1.82)"/><path class="cls-1" d="M38.88,12.17v-4c0-2.08-1-2.87-2.37-2.87s-2.34.8-2.34,2.68v4.21h-1V4.51h1v1a3,3,0,0,1,2.47-1.18c1.92,0,3.28,1.13,3.28,3.82v4Z" transform="translate(-0.69 -1.82)"/><path class="cls-1" d="M48.63,13.81a3.8,3.8,0,0,1-3.11,1.37,3.75,3.75,0,0,1-3.86-2.77h1a2.87,2.87,0,0,0,2.82,1.82c1.85,0,2.81-1.08,2.81-3.09v-.52a3,3,0,0,1-2.92,1.73,3.93,3.93,0,0,1-4-4,3.9,3.9,0,0,1,3.93-4.05,3.45,3.45,0,0,1,3,1.54V4.51h1V10.8A4.7,4.7,0,0,1,48.63,13.81ZM45.36,5.28a2.87,2.87,0,0,0-2.93,3,2.94,2.94,0,1,0,5.87,0A2.92,2.92,0,0,0,45.36,5.28Z" transform="translate(-0.69 -1.82)"/><path class="cls-1" d="M9.42,26.57H8.28l-2-7.27L4.37,26.57H3.22L.69,17.71H1.6l2.18,7.71,2.13-7.71h.84l2.12,7.71,2.18-7.71H12Z" transform="translate(-0.69 -1.82)"/><path class="cls-1" d="M12.93,23.59a2.53,2.53,0,0,0,2.55,2.32,2.48,2.48,0,0,0,2.29-1.5h.93a3.48,3.48,0,0,1-3.19,2.32A3.43,3.43,0,0,1,12,23.26a3.42,3.42,0,1,1,6.83.33Zm2.51-2.92A2.5,2.5,0,0,0,13,22.78h5A2.55,2.55,0,0,0,15.44,20.67Z" transform="translate(-0.69 -1.82)"/><path class="cls-1" d="M23.35,26.73a3,3,0,0,1-2.56-1.28v1.12H19.9V17.71h.89v3.43a3,3,0,0,1,2.58-1.28,3.44,3.44,0,1,1,0,6.87Zm0-6.06a2.58,2.58,0,0,0-2.61,2.59,2.63,2.63,0,0,0,2.6,2.65,2.56,2.56,0,0,0,2.59-2.65A2.53,2.53,0,0,0,23.34,20.67Z" transform="translate(-0.69 -1.82)"/><path class="cls-1" d="M29.46,26.73a2,2,0,0,1-2.11-2.09h.88a1.16,1.16,0,0,0,1.23,1.27,1.09,1.09,0,0,0,1.11-1.14c0-.66-.33-.87-1.27-1.26s-.95-.38-1.22-.63a1.58,1.58,0,0,1-.49-1.18,1.8,1.8,0,0,1,1.86-1.84,1.74,1.74,0,0,1,1.85,1.77h-.9a.88.88,0,0,0-1-1,.94.94,0,0,0-1,.95.91.91,0,0,0,.6.86c.19.1.24.12,1.24.53a1.69,1.69,0,0,1,1.14,1.68A1.94,1.94,0,0,1,29.46,26.73Z" transform="translate(-0.69 -1.82)"/><path class="cls-1" d="M32.36,19.29V17.78h.88v1.51Zm0,7.28V20h.88v6.56Z" transform="translate(-0.69 -1.82)"/><path class="cls-1" d="M36.26,20.82v5.75h-.89V20.82H34V20h1.42v-2.3h.89V20h1.47v.81Z" transform="translate(-0.69 -1.82)"/><path class="cls-1" d="M38.78,23.59a2.53,2.53,0,0,0,2.55,2.32,2.48,2.48,0,0,0,2.29-1.5h.92a3.47,3.47,0,0,1-3.19,2.32,3.43,3.43,0,0,1-3.46-3.47,3.42,3.42,0,1,1,6.82.33Zm2.5-2.92a2.5,2.5,0,0,0-2.48,2.11h5A2.56,2.56,0,0,0,41.28,20.67Z" transform="translate(-0.69 -1.82)"/><path class="cls-1" d="M47.32,26.73a2,2,0,0,1-2.11-2.09h.87a1.17,1.17,0,0,0,1.24,1.27,1.08,1.08,0,0,0,1.1-1.14c0-.66-.32-.87-1.27-1.26s-.95-.38-1.21-.63a1.58,1.58,0,0,1-.49-1.18,1.8,1.8,0,0,1,1.86-1.84,1.74,1.74,0,0,1,1.84,1.77h-.9a.88.88,0,0,0-1-1,.94.94,0,0,0-.95.95.91.91,0,0,0,.6.86c.19.1.24.12,1.23.53a1.69,1.69,0,0,1,1.14,1.68A1.94,1.94,0,0,1,47.32,26.73Z" transform="translate(-0.69 -1.82)"/><path class="cls-1" d="M19.13,51.57l-3-7H6.5l-3,7H1.3l8.87-20.69H12.5l8.9,20.69ZM11.35,33.23,7.29,42.72h8Z" transform="translate(-0.69 -1.82)"/><path class="cls-1" d="M31.06,43.84l5.79,7.73H34.28l-7-9.38c5.79,0,7.75-1,7.75-4.73,0-3.44-2.13-4.7-6.94-4.7H25.21V51.57H23.13V30.88h5.13c6.49,0,8.9,2.35,8.9,6.66C37.16,41.21,35,43.42,31.06,43.84Z" transform="translate(-0.69 -1.82)"/><path class="cls-1" d="M44.3,32.76V51.57H42.23V32.76H37.5V30.88H49v1.88Z" transform="translate(-0.69 -1.82)"/></g></g></svg>