<svg xmlns="http://www.w3.org/2000/svg" viewBox="0 0 114.99 11.44"><defs><style>.cls-1{fill:#fff;}</style></defs><g id="Layer_2" data-name="Layer 2"><g id="Layer_1-2" data-name="Layer 1"><path class="cls-1" d="M18.62,10.43V2.54l-3.33,7.89h-.77L11.2,2.54v7.89h-.89V1.57h1.38l3.23,7.54,3.21-7.54h1.38v8.86Z" transform="translate(-10.31 -1.57)"/><path class="cls-1" d="M26.68,10.43V9.28a2.84,2.84,0,0,1-2.53,1.31,3.38,3.38,0,0,1-3.52-3.42,3.38,3.38,0,0,1,3.46-3.45A2.92,2.92,0,0,1,26.68,5V3.87h.88v6.56Zm-2.57-5.9a2.57,2.57,0,0,0-2.58,2.58,2.6,2.6,0,0,0,2.63,2.66,2.56,2.56,0,0,0,2.52-2.65A2.55,2.55,0,0,0,24.11,4.53Z" transform="translate(-10.31 -1.57)"/><path class="cls-1" d="M32.88,10.43,30.7,7.81l-1,1.27v1.35h-.89V1.57h.89V7.85l3-4h1.1l-2.56,3.3L34,10.43Z" transform="translate(-10.31 -1.57)"/><path class="cls-1" d="M34.5,3.15V1.64h.89V3.15Zm0,7.28V3.87h.89v6.56Z" transform="translate(-10.31 -1.57)"/><path class="cls-1" d="M41.52,10.43V7c0-1.78-.82-2.46-2-2.46s-2,.69-2,2.29v3.61H36.6V3.87h.89v.86a2.58,2.58,0,0,1,2.11-1c1.64,0,2.81,1,2.81,3.27v3.44Z" transform="translate(-10.31 -1.57)"/><path class="cls-1" d="M49.57,11.84A3.25,3.25,0,0,1,46.91,13a3.21,3.21,0,0,1-3.3-2.37h.86a2.47,2.47,0,0,0,2.41,1.56c1.59,0,2.42-.93,2.42-2.65V9.1a2.59,2.59,0,0,1-2.51,1.49,3.37,3.37,0,0,1-3.42-3.41,3.34,3.34,0,0,1,3.36-3.46A3,3,0,0,1,49.3,5V3.87h.88V9.26A4,4,0,0,1,49.57,11.84ZM46.78,4.53a2.46,2.46,0,0,0-2.51,2.58,2.52,2.52,0,1,0,5,0A2.51,2.51,0,0,0,46.78,4.53Z" transform="translate(-10.31 -1.57)"/><path class="cls-1" d="M62.52,10.43H61.38l-2-7.26-1.94,7.26H56.32L53.79,1.57h.91l2.18,7.71L59,1.57h.84L62,9.28l2.18-7.71h.91Z" transform="translate(-10.31 -1.57)"/><path class="cls-1" d="M65.92,7.45a2.53,2.53,0,0,0,2.55,2.32,2.48,2.48,0,0,0,2.29-1.5h.93a3.48,3.48,0,0,1-3.19,2.32A3.43,3.43,0,0,1,65,7.12a3.42,3.42,0,1,1,6.82.33Zm2.5-2.92a2.5,2.5,0,0,0-2.48,2.11h5A2.55,2.55,0,0,0,68.42,4.53Z" transform="translate(-10.31 -1.57)"/><path class="cls-1" d="M76.24,10.59a3,3,0,0,1-2.57-1.28v1.12h-.89V1.57h.89V5a3,3,0,0,1,2.58-1.28A3.4,3.4,0,0,1,79.7,7.15,3.38,3.38,0,0,1,76.24,10.59Zm0-6.06a2.58,2.58,0,0,0-2.61,2.59,2.63,2.63,0,0,0,2.6,2.65A2.56,2.56,0,0,0,78.8,7.12,2.53,2.53,0,0,0,76.22,4.53Z" transform="translate(-10.31 -1.57)"/><path class="cls-1" d="M82.24,10.59A2,2,0,0,1,80.13,8.5H81a1.17,1.17,0,0,0,1.24,1.27,1.09,1.09,0,0,0,1.1-1.13c0-.66-.32-.88-1.27-1.26s-.95-.39-1.21-.64a1.54,1.54,0,0,1-.49-1.18,1.8,1.8,0,0,1,1.86-1.84,1.74,1.74,0,0,1,1.84,1.77h-.9a.88.88,0,0,0-1-1,.94.94,0,0,0-.94,1,.91.91,0,0,0,.6.86c.19.1.24.12,1.23.53a1.69,1.69,0,0,1,1.14,1.68A1.94,1.94,0,0,1,82.24,10.59Z" transform="translate(-10.31 -1.57)"/><path class="cls-1" d="M85,3.15V1.64h.89V3.15Zm0,7.28V3.87h.89v6.56Z" transform="translate(-10.31 -1.57)"/><path class="cls-1" d="M88.81,4.68v5.75h-.88V4.68H86.51V3.87h1.42V1.57h.88v2.3h1.48v.81Z" transform="translate(-10.31 -1.57)"/><path class="cls-1" d="M91.23,7.45a2.53,2.53,0,0,0,2.55,2.32,2.48,2.48,0,0,0,2.29-1.5H97a3.47,3.47,0,0,1-3.19,2.32,3.43,3.43,0,0,1-3.46-3.47,3.42,3.42,0,1,1,6.82.33Zm2.5-2.92a2.49,2.49,0,0,0-2.48,2.11h5A2.54,2.54,0,0,0,93.73,4.53Z" transform="translate(-10.31 -1.57)"/><path class="cls-1" d="M99.66,10.59A2,2,0,0,1,97.55,8.5h.88a1.16,1.16,0,0,0,1.23,1.27,1.08,1.08,0,0,0,1.1-1.13c0-.66-.32-.88-1.27-1.26s-.94-.39-1.21-.64a1.58,1.58,0,0,1-.49-1.18,1.8,1.8,0,0,1,1.86-1.84,1.75,1.75,0,0,1,1.85,1.77h-.9a.89.89,0,0,0-1-1,.94.94,0,0,0-1,1,.91.91,0,0,0,.6.86c.19.1.24.12,1.23.53a1.69,1.69,0,0,1,1.14,1.68A1.93,1.93,0,0,1,99.66,10.59Z" transform="translate(-10.31 -1.57)"/><path class="cls-1" d="M112.49,10.43l-1.29-3h-4.12l-1.3,3h-.93l3.8-8.86h1l3.82,8.86Zm-3.34-7.85-1.74,4.06h3.44Z" transform="translate(-10.31 -1.57)"/><path class="cls-1" d="M117.6,7.12l2.48,3.31H119l-3-4c2.48,0,3.32-.44,3.32-2s-.91-2-3-2h-1.25v8.06h-.89V1.57h2.2c2.78,0,3.81,1,3.81,2.86A2.55,2.55,0,0,1,117.6,7.12Z" transform="translate(-10.31 -1.57)"/><path class="cls-1" d="M123.27,2.37v8.06h-.88V2.37h-2v-.8h4.94v.8Z" transform="translate(-10.31 -1.57)"/></g></g></svg>